<svg width="53" height="53" viewBox="0 0 53 53" fill="none" xmlns="http://www.w3.org/2000/svg">
<path d="M29.5036 41.7822C29.8242 42.0767 30.2478 42.2332 30.6829 42.2177C31.1179 42.2022 31.5294 42.0161 31.8283 41.6996C32.1272 41.3831 32.2894 40.9617 32.2799 40.5264C32.2705 40.0912 32.09 39.6772 31.7776 39.374L18.1467 26.5L31.7776 13.626C32.09 13.3228 32.2705 12.9088 32.2799 12.4736C32.2894 12.0383 32.1272 11.6169 31.8283 11.3004C31.5294 10.9839 31.1179 10.7977 30.6829 10.7823C30.2478 10.7668 29.8242 10.9233 29.5036 11.2178L14.5974 25.2959C14.4336 25.4508 14.3031 25.6374 14.2139 25.8445C14.1247 26.0515 14.0787 26.2746 14.0787 26.5C14.0787 26.7254 14.1247 26.9485 14.2139 27.1555C14.3031 27.3626 14.4336 27.5492 14.5974 27.7041L29.5036 41.7822Z" fill="#F7F7F7"/>
<path d="M26.5 53C33.578 53 40.2328 50.2432 45.2372 45.238C50.2432 40.2328 53 33.578 53 26.5C53 19.422 50.2423 12.7672 45.2372 7.76284C40.2328 2.75683 33.578 0 26.5 0C19.422 0 12.7672 2.75683 7.76284 7.76202C2.75683 12.7672 0 19.422 0 26.5C0 33.578 2.75766 40.2328 7.76284 45.2372C12.7672 50.2432 19.422 53 26.5 53ZM10.1056 10.1048C14.4847 5.72483 20.3065 3.3125 26.5 3.3125C32.6935 3.3125 38.5153 5.72483 42.8952 10.1048C47.2752 14.4839 49.6875 20.3065 49.6875 26.5C49.6875 32.6935 47.2752 38.5161 42.8944 42.8952C38.5153 47.2752 32.6935 49.6875 26.5 49.6875C20.3065 49.6875 14.4847 47.2752 10.1048 42.8952C5.72483 38.5161 3.3125 32.6935 3.3125 26.5C3.3125 20.3065 5.72483 14.4839 10.1056 10.1048Z" fill="#F7F7F7"/>
</svg>
