<svg width="53" height="53" viewBox="0 0 53 53" fill="none" xmlns="http://www.w3.org/2000/svg">
<path d="M23.4964 11.2178C23.1758 10.9233 22.7522 10.7668 22.3171 10.7823C21.8821 10.7978 21.4706 10.9839 21.1717 11.3004C20.8728 11.6169 20.7106 12.0383 20.7201 12.4736C20.7295 12.9088 20.91 13.3228 21.2224 13.626L34.8533 26.5L21.2224 39.374C20.91 39.6772 20.7295 40.0912 20.7201 40.5264C20.7106 40.9617 20.8728 41.3831 21.1717 41.6996C21.4706 42.0161 21.8821 42.2023 22.3171 42.2177C22.7522 42.2332 23.1758 42.0767 23.4964 41.7822L38.4026 27.7041C38.5664 27.5492 38.6969 27.3626 38.7861 27.1555C38.8753 26.9485 38.9213 26.7254 38.9213 26.5C38.9213 26.2746 38.8753 26.0515 38.7861 25.8445C38.6969 25.6374 38.5664 25.4508 38.4026 25.2959L23.4964 11.2178Z" fill="#F7F7F7"/>
<path d="M26.5 0C19.422 0 12.7672 2.75683 7.76284 7.76202C2.75683 12.7672 0 19.422 0 26.5C0 33.578 2.75766 40.2328 7.76284 45.2372C12.7672 50.2432 19.422 53 26.5 53C33.578 53 40.2328 50.2432 45.2372 45.238C50.2432 40.2328 53 33.578 53 26.5C53 19.422 50.2423 12.7672 45.2372 7.76284C40.2328 2.75683 33.578 0 26.5 0ZM42.8944 42.8952C38.5153 47.2752 32.6935 49.6875 26.5 49.6875C20.3065 49.6875 14.4847 47.2752 10.1048 42.8952C5.72483 38.5161 3.3125 32.6935 3.3125 26.5C3.3125 20.3065 5.72483 14.4839 10.1056 10.1048C14.4847 5.72483 20.3065 3.3125 26.5 3.3125C32.6935 3.3125 38.5153 5.72483 42.8952 10.1048C47.2752 14.4839 49.6875 20.3065 49.6875 26.5C49.6875 32.6935 47.2752 38.5161 42.8944 42.8952Z" fill="#F7F7F7"/>
</svg>
