<svg width="16" height="16" viewBox="0 0 16 16" fill="none" xmlns="http://www.w3.org/2000/svg">
<path d="M3.38101 9.51054e-06C2.93671 -0.00104551 2.49659 0.0856865 2.08591 0.255224C1.67523 0.424761 1.30209 0.673764 0.987929 0.987929C0.673764 1.30209 0.424761 1.67523 0.255224 2.08591C0.0856865 2.49659 -0.00104551 2.93671 9.51054e-06 3.38101V12.619C-0.00104551 13.0633 0.0856865 13.5034 0.255224 13.9141C0.424761 14.3248 0.673764 14.6979 0.987929 15.0121C1.30209 15.3263 1.67523 15.5753 2.08591 15.7448C2.49659 15.9143 2.93671 16.0011 3.38101 16H12.619C13.0633 16.0011 13.5034 15.9143 13.9141 15.7448C14.3248 15.5753 14.6979 15.3263 15.0121 15.0121C15.3263 14.6979 15.5753 14.3248 15.7448 13.9141C15.9143 13.5034 16.0011 13.0633 16 12.619V3.38101C16.0011 2.93671 15.9143 2.49659 15.7448 2.08591C15.5753 1.67523 15.3263 1.30209 15.0121 0.987929C14.6979 0.673764 14.3248 0.424761 13.9141 0.255224C13.5034 0.0856865 13.0633 -0.00104551 12.619 9.51054e-06H3.38101ZM8.00001 4.25101C8.49256 4.25011 8.98044 4.34651 9.43563 4.53468C9.89082 4.72285 10.3044 4.99908 10.6525 5.34751C12.1145 6.81001 12.1145 9.18901 10.6525 10.6515C9.19001 12.1135 6.81001 12.1135 5.34751 10.6515C3.88551 9.18901 3.88551 6.81001 5.34751 5.34751C5.69565 4.99908 6.10919 4.72285 6.56439 4.53468C7.01958 4.34651 7.50746 4.25011 8.00001 4.25101ZM8.00001 4.74801C7.57291 4.74754 7.14993 4.8315 6.75539 4.99505C6.36085 5.1586 6.00252 5.39851 5.70101 5.70101C5.39874 6.00261 5.15893 6.36088 4.99531 6.75529C4.83168 7.1497 4.74746 7.57251 4.74746 7.99951C4.74746 8.42651 4.83168 8.84932 4.99531 9.24373C5.15893 9.63814 5.39874 9.99641 5.70101 10.298C6.00261 10.6003 6.36088 10.8401 6.75529 11.0037C7.1497 11.1673 7.57251 11.2516 7.99951 11.2516C8.42651 11.2516 8.84932 11.1673 9.24373 11.0037C9.63814 10.8401 9.99641 10.6003 10.298 10.298C10.6003 9.99641 10.8401 9.63814 11.0037 9.24373C11.1673 8.84932 11.2516 8.42651 11.2516 7.99951C11.2516 7.57251 11.1673 7.1497 11.0037 6.75529C10.8401 6.36088 10.6003 6.00261 10.298 5.70101C9.99668 5.39855 9.63853 5.15864 9.24415 4.99509C8.84978 4.83153 8.42696 4.74757 8.00001 4.74801ZM9.48001 6.99901L9.48151 7.00001C9.48967 6.99961 9.49785 6.99961 9.50601 7.00001C9.55844 7.0008 9.6093 7.01805 9.65139 7.04934C9.69348 7.08062 9.72466 7.12435 9.74053 7.17433C9.7564 7.22432 9.75615 7.27802 9.73981 7.32785C9.72348 7.37769 9.69189 7.42112 9.64951 7.45201L7.65051 8.95201C7.60224 8.98788 7.54266 9.00515 7.48269 9.00065C7.42272 8.99615 7.36638 8.97018 7.32401 8.92751L6.32401 7.92751C6.2992 7.9047 6.27925 7.87712 6.26537 7.8464C6.25149 7.81569 6.24396 7.78249 6.24324 7.7488C6.24252 7.7151 6.24862 7.68161 6.26117 7.65033C6.27372 7.61906 6.29247 7.59064 6.31628 7.56679C6.3401 7.54294 6.36849 7.52416 6.39975 7.51156C6.43101 7.49897 6.46449 7.49282 6.49818 7.49349C6.53188 7.49417 6.56509 7.50165 6.59582 7.51548C6.62655 7.52932 6.65417 7.54923 6.67701 7.57401L7.52351 8.42101L9.34951 7.05101C9.38729 7.02147 9.43276 7.00342 9.48051 6.99901H9.48001Z" fill="#FFC403"/>
</svg>
