<svg width="21" height="13" viewBox="0 0 21 13" fill="none" xmlns="http://www.w3.org/2000/svg">
<path d="M20.0833 0.270874H0.916667C0.653125 0.270874 0.4375 0.486499 0.4375 0.750041V12.25C0.4375 12.5136 0.653125 12.7292 0.916667 12.7292H20.0833C20.3469 12.7292 20.5625 12.5136 20.5625 12.25V0.750041C20.5625 0.486499 20.3469 0.270874 20.0833 0.270874ZM19.6042 11.7709H1.39583V3.51483L10.2556 8.82879C10.3275 8.87192 10.4137 8.89587 10.5 8.89587C10.5862 8.89587 10.6725 8.87192 10.7444 8.82879L19.6042 3.51483V11.7709ZM19.6042 2.39358L10.5 7.85608L1.39583 2.39358V1.22921H19.6042V2.39358Z" fill="#EACE88"/>
</svg>
