<svg width="74" height="76" viewBox="0 0 74 76" fill="none" xmlns="http://www.w3.org/2000/svg">
<path d="M66.5625 8.4375H62.4372V11.125H66.5625C67.6317 11.125 68.657 11.5497 69.413 12.3057C70.169 13.0617 70.5938 14.0871 70.5938 15.1562V51.4375H67.9062V15.1562C67.9062 14.7999 67.7647 14.4581 67.5127 14.2061C67.2607 13.9541 66.9189 13.8125 66.5625 13.8125H62.5312V16.5H65.2188V51.4375H61.1875V4.40625C61.1875 3.3371 60.7628 2.31173 60.0068 1.55573C59.2508 0.79972 58.2254 0.375 57.1562 0.375H16.8438C15.7746 0.375 14.7492 0.79972 13.9932 1.55573C13.2372 2.31173 12.8125 3.3371 12.8125 4.40625V51.4375H8.78125V16.5H11.4688V13.8125H7.4375C7.08112 13.8125 6.73933 13.9541 6.48733 14.2061C6.23532 14.4581 6.09375 14.7999 6.09375 15.1562V51.4375H3.40625V15.1562C3.40625 14.0871 3.83097 13.0617 4.58698 12.3057C5.34298 11.5497 6.36835 11.125 7.4375 11.125H11.4688V8.4375H7.4375C5.65558 8.4375 3.94664 9.14537 2.68663 10.4054C1.42662 11.6654 0.71875 13.3743 0.71875 15.1562V58.1562C0.71875 59.9382 1.42662 61.6471 2.68663 62.9071C3.94664 64.1671 5.65558 64.875 7.4375 64.875H27.5938V72.9375H23.5625V75.625H50.4375V72.9375H46.4062V64.875H66.5625C68.3444 64.875 70.0534 64.1671 71.3134 62.9071C72.5734 61.6471 73.2812 59.9382 73.2812 58.1562V15.1562C73.2812 13.3743 72.5734 11.6654 71.3134 10.4054C70.0534 9.14537 68.3444 8.4375 66.5625 8.4375ZM58.5 28.5938H51.7812C51.4882 28.5785 51.1982 28.6595 50.9556 28.8245C50.713 28.9895 50.531 29.2294 50.4375 29.5075L49.2147 33.2028L46.4062 21.5525C46.3393 21.2876 46.1932 21.0493 45.9873 20.8696C45.7815 20.6899 45.5258 20.5771 45.2542 20.5465C44.9827 20.5158 44.7082 20.5687 44.4675 20.698C44.2268 20.8273 44.0312 21.027 43.9069 21.2703L40.1981 28.5938H35.6562C35.3745 28.593 35.0997 28.6809 34.8707 28.8448C34.6416 29.0088 34.4698 29.2406 34.3797 29.5075L33.1569 33.2028L30.2812 21.5525C30.2143 21.2876 30.0682 21.0493 29.8623 20.8696C29.6565 20.6899 29.4008 20.5771 29.1292 20.5465C28.8577 20.5158 28.5832 20.5687 28.3425 20.698C28.1018 20.8273 27.9062 21.027 27.7819 21.2703L24.0731 28.5938H15.5V11.125H58.5V28.5938ZM16.8438 3.0625H57.1562C57.5126 3.0625 57.8544 3.20407 58.1064 3.45608C58.3584 3.70808 58.5 4.04987 58.5 4.40625V8.4375H15.5V4.40625C15.5 4.04987 15.6416 3.70808 15.8936 3.45608C16.1456 3.20407 16.4874 3.0625 16.8438 3.0625ZM15.5 31.2812H24.9062C25.1544 31.2805 25.3975 31.211 25.6086 31.0806C25.8197 30.9501 25.9905 30.7638 26.1022 30.5422L28.5209 25.7316L31.625 38.3225C31.6986 38.6206 31.872 38.8846 32.1165 39.0704C32.361 39.2562 32.6618 39.3527 32.9688 39.3438C33.2618 39.359 33.5518 39.278 33.7944 39.113C34.037 38.948 34.219 38.7081 34.3125 38.43L36.6237 31.2812H41.0312C41.2794 31.2805 41.5225 31.211 41.7336 31.0806C41.9447 30.9501 42.1155 30.7638 42.2272 30.5422L44.6459 25.7316L47.75 38.3225C47.8236 38.6206 47.997 38.8846 48.2415 39.0704C48.486 39.2562 48.7868 39.3527 49.0938 39.3438C49.3868 39.359 49.6768 39.278 49.9194 39.113C50.162 38.948 50.344 38.7081 50.4375 38.43L52.7488 31.2812H58.5V51.4375H15.5V31.2812ZM43.7188 72.9375H30.2812V64.875H43.7188V72.9375ZM66.5625 62.1875H7.4375C6.36835 62.1875 5.34298 61.7628 4.58698 61.0068C3.83097 60.2508 3.40625 59.2254 3.40625 58.1562V54.125H70.5938V58.1562C70.5938 59.2254 70.169 60.2508 69.413 61.0068C68.657 61.7628 67.6317 62.1875 66.5625 62.1875ZM31.625 56.8125H43.7188V59.5H31.625V56.8125ZM22.2188 7.09375H18.1875V4.40625H22.2188V7.09375ZM28.9375 7.09375H24.9062V4.40625H28.9375V7.09375Z" fill="#EACE88"/>
</svg>
