<svg width="46" height="70" viewBox="0 0 46 70" fill="none" xmlns="http://www.w3.org/2000/svg">
<path fill-rule="evenodd" clip-rule="evenodd" d="M39.5 69.5H6.5C4.9087 69.5 3.38258 68.8679 2.25736 67.7426C1.13214 66.6174 0.5 65.0913 0.5 63.5V18.5C0.5 16.9087 1.13214 15.3826 2.25736 14.2574C3.38258 13.1321 4.9087 12.5 6.5 12.5H17V6.5C17 4.9087 17.6321 3.38258 18.7574 2.25736C19.8826 1.13214 21.4087 0.5 23 0.5C24.5913 0.5 26.1174 1.13214 27.2426 2.25736C28.3679 3.38258 29 4.9087 29 6.5V12.5H39.5C41.0913 12.5 42.6174 13.1321 43.7426 14.2574C44.8679 15.3826 45.5 16.9087 45.5 18.5V63.5C45.5 65.0913 44.8679 66.6174 43.7426 67.7426C42.6174 68.8679 41.0913 69.5 39.5 69.5ZM26 6.5C26 5.70435 25.6839 4.94129 25.1213 4.37868C24.5587 3.81607 23.7956 3.5 23 3.5C22.2044 3.5 21.4413 3.81607 20.8787 4.37868C20.3161 4.94129 20 5.70435 20 6.5V15.5C20 16.2956 20.3161 17.0587 20.8787 17.6213C21.4413 18.1839 22.2044 18.5 23 18.5C23.7956 18.5 24.5587 18.1839 25.1213 17.6213C25.6839 17.0587 26 16.2956 26 15.5V6.5ZM42.5 18.5C42.5 17.7044 42.1839 16.9413 41.6213 16.3787C41.0587 15.8161 40.2957 15.5 39.5 15.5H29C29 17.0913 28.3679 18.6174 27.2426 19.7426C26.1174 20.8679 24.5913 21.5 23 21.5C21.4087 21.5 19.8826 20.8679 18.7574 19.7426C17.6321 18.6174 17 17.0913 17 15.5H6.5C5.70435 15.5 4.94129 15.8161 4.37868 16.3787C3.81607 16.9413 3.5 17.7044 3.5 18.5V54.5H9.1955C9.542 53.6165 10.1795 52.1765 10.9355 51.14C10.973 51.119 12.2075 48.5315 18.4325 48.455C18.4415 48.4235 18.4475 46.892 18.4655 46.9145C17.9038 46.5554 17.3761 46.1457 16.889 45.6905C16.5065 45.4565 15.1475 44.147 14.711 41.816C14.5805 41.003 13.979 37.1675 13.979 35.567C13.979 30.8105 15.8765 25.9955 22.9085 25.9955H23.09C30.122 25.9955 32.0195 30.8105 32.0195 35.567C32.0195 37.1675 31.418 41.003 31.2875 41.816C30.851 44.147 29.4935 45.4565 29.1095 45.6905C28.6234 46.1469 28.0956 46.5567 27.533 46.9145C27.5525 46.892 27.56 48.425 27.566 48.455C33.7925 48.5315 35.027 51.119 35.063 51.14C35.819 52.1765 36.4565 53.6165 36.803 54.5H42.5V18.5ZM24.521 46.232L24.5195 46.238C24.515 46.238 24.494 45.0665 24.494 45.0665C24.494 45.0665 26.243 44.165 27.5405 42.9995C28.301 42.374 28.652 40.9565 28.652 40.9565C28.8575 39.7145 29.009 36.641 29.009 35.402C29.009 32.309 27.4595 28.982 22.9985 28.982V28.9715V28.982C18.5375 28.982 16.988 32.3105 16.988 35.402C16.988 36.641 17.1425 39.7145 17.345 40.9565C17.345 40.9565 17.696 42.374 18.4565 42.9995C19.754 44.165 21.503 45.0665 21.503 45.0665C21.503 45.0665 21.482 46.238 21.476 46.238V46.232C21.476 46.232 21.5195 47.951 21.5195 48.461C21.5195 50.5055 19.472 51.4895 18.185 51.4895H18.1805C14.291 51.6605 13.373 52.9535 13.3655 52.9655C13.1285 53.345 12.8 53.723 12.497 54.5H33.5045C33.2 53.723 32.8715 53.345 32.6315 52.967C32.6225 52.9535 31.703 51.662 27.815 51.491H27.812C26.525 51.491 24.476 50.5085 24.476 48.4625C24.476 47.951 24.521 46.232 24.521 46.232ZM42.5 57.5H3.5V63.5C3.5 64.2957 3.81607 65.0587 4.37868 65.6213C4.94129 66.1839 5.70435 66.5 6.5 66.5H39.5C40.2957 66.5 41.0587 66.1839 41.6213 65.6213C42.1839 65.0587 42.5 64.2957 42.5 63.5V57.5ZM33.5 63.5H29C28.6022 63.5 28.2206 63.342 27.9393 63.0607C27.658 62.7794 27.5 62.3978 27.5 62C27.5 61.6022 27.658 61.2206 27.9393 60.9393C28.2206 60.658 28.6022 60.5 29 60.5H33.5C33.8978 60.5 34.2794 60.658 34.5607 60.9393C34.842 61.2206 35 61.6022 35 62C35 62.3978 34.842 62.7794 34.5607 63.0607C34.2794 63.342 33.8978 63.5 33.5 63.5ZM21.5 63.5H12.5C12.1022 63.5 11.7206 63.342 11.4393 63.0607C11.158 62.7794 11 62.3978 11 62C11 61.6022 11.158 61.2206 11.4393 60.9393C11.7206 60.658 12.1022 60.5 12.5 60.5H21.5C21.8978 60.5 22.2794 60.658 22.5607 60.9393C22.842 61.2206 23 61.6022 23 62C23 62.3978 22.842 62.7794 22.5607 63.0607C22.2794 63.342 21.8978 63.5 21.5 63.5ZM21.5 6.5H24.5V9.5H21.5V6.5Z" fill="#EACE88"/>
</svg>
