<svg width="80" height="80" viewBox="0 0 80 80" fill="none" xmlns="http://www.w3.org/2000/svg">
<path d="M7 49H73M7 7H73V59H7V7ZM54.5 73H25.5C25.5 71.4087 26.1321 69.8826 27.2574 68.7574C28.3826 67.6321 29.9087 67 31.5 67H48.5C50.0913 67 51.6174 67.6321 52.7426 68.7574C53.8679 69.8826 54.5 71.4087 54.5 73V73ZM48 67V59V67ZM32 67V59V67Z" stroke="#EACE88" stroke-width="4" stroke-miterlimit="10"/>
<path d="M7 28H18L25 19L29 37L36 19.947L42 36.053L44 28.474H52L56 19.947L61 35.105L64 28H73" stroke="#EACE88" stroke-width="4" stroke-miterlimit="10" stroke-linecap="round" stroke-linejoin="round"/>
</svg>
