<svg width="73" height="73" viewBox="0 0 73 73" fill="none" xmlns="http://www.w3.org/2000/svg">
<path d="M4.5625 4.5625H13.6875V2.28125H3.42188C3.11936 2.28125 2.82924 2.40142 2.61533 2.61533C2.40142 2.82924 2.28125 3.11936 2.28125 3.42188V13.6875H4.5625V4.5625ZM4.5625 59.3125H2.28125V69.5781C2.28125 69.8806 2.40142 70.1708 2.61533 70.3847C2.82924 70.5986 3.11936 70.7188 3.42188 70.7188H13.6875V68.4375H4.5625V59.3125ZM69.5781 2.28125H59.3125V4.5625H68.4375V13.6875H70.7188V3.42188C70.7188 3.11936 70.5986 2.82924 70.3847 2.61533C70.1708 2.40142 69.8806 2.28125 69.5781 2.28125ZM68.4375 68.4375H59.3125V70.7188H69.5781C69.8806 70.7188 70.1708 70.5986 70.3847 70.3847C70.5986 70.1708 70.7188 69.8806 70.7188 69.5781V59.3125H68.4375V68.4375ZM52.3547 52.9604C52.3879 52.8918 52.4139 52.8199 52.4322 52.7459L53.5421 48.3043L58.8848 37.6201C59.0262 37.6292 59.1676 37.6406 59.3102 37.6406C60.6638 37.6406 61.987 37.2392 63.1124 36.4872C64.2379 35.7352 65.115 34.6664 65.633 33.4159C66.151 32.1653 66.2865 30.7893 66.0225 29.4617C65.7584 28.1342 65.1066 26.9147 64.1495 25.9576C63.1924 25.0005 61.9729 24.3487 60.6454 24.0846C59.3178 23.8206 57.9418 23.9561 56.6912 24.4741C55.4407 24.9921 54.3718 25.8692 53.6198 26.9947C52.8678 28.1201 52.4665 29.4433 52.4665 30.7969C52.4706 31.1831 52.5088 31.5682 52.5805 31.9478L49.3138 35.624L49.105 35.2077L51.0441 26.1751C52.351 26.0102 53.5825 25.4717 54.5909 24.6241C55.5993 23.7766 56.3416 22.656 56.7289 21.397C57.1161 20.1379 57.1317 18.7939 56.7739 17.5262C56.4161 16.2585 55.7001 15.1209 54.7117 14.2501C53.7234 13.3793 52.5047 12.8123 51.202 12.617C49.8993 12.4217 48.5679 12.6066 47.3677 13.1493C46.1675 13.692 45.1494 14.5696 44.4356 15.6767C43.7218 16.7838 43.3427 18.0734 43.3438 19.3906C43.3454 20.4221 43.5826 21.4395 44.0373 22.3654L40.9576 31.0775L40.2846 17.9283C41.3961 17.061 42.2127 15.8715 42.6226 14.5225C43.0325 13.1735 43.0158 11.7309 42.5747 10.3917C42.1336 9.0526 41.2897 7.88238 40.1583 7.04106C39.027 6.19973 37.6634 5.72837 36.2539 5.6914C34.8445 5.65443 33.4581 6.05366 32.2842 6.83452C31.1102 7.61538 30.2061 8.73975 29.6955 10.0539C29.1848 11.3681 29.0924 12.8079 29.4311 14.1765C29.7697 15.5452 30.5228 16.7758 31.5873 17.7002L30.903 31.7961L27.659 24.9523C28.3615 23.6721 28.636 22.2008 28.4425 20.7534C28.2491 19.306 27.5977 17.9585 26.5837 16.9077C25.5697 15.857 24.2461 15.1581 22.8065 14.9133C21.367 14.6685 19.8868 14.8905 18.5824 15.547C17.2781 16.2035 16.2179 17.2599 15.5568 18.562C14.8958 19.8641 14.6685 21.3434 14.9083 22.7839C15.148 24.2243 15.8422 25.5503 16.8894 26.568C17.9366 27.5857 19.2819 28.2418 20.7286 28.4403L23.9531 37.8311V40.6211L22.7281 40.2127C23.0351 38.4778 22.7694 36.6902 21.9713 35.1195C21.1732 33.5488 19.8859 32.2803 18.3036 31.5054C16.7213 30.7305 14.93 30.4913 13.1998 30.8237C11.4696 31.1562 9.89451 32.0424 8.71215 33.3486C7.5298 34.6548 6.80434 36.3101 6.64525 38.0647C6.48616 39.8193 6.90206 41.5781 7.8302 43.0757C8.75834 44.5732 10.1484 45.7282 11.7905 46.3665C13.4327 47.0047 15.2379 47.0916 16.9337 46.6139L22.9733 53.0904L25.0938 58.3909V61.5938H22.8125C22.51 61.5938 22.2199 61.7139 22.006 61.9278C21.792 62.1417 21.6719 62.4319 21.6719 62.7344V70.7188H23.9531V63.875H50.1875V70.7188H52.4688V62.7344C52.4688 62.4319 52.3486 62.1417 52.1347 61.9278C51.9208 61.7139 51.6306 61.5938 51.3281 61.5938H50.1476L50.0153 57.8673L52.3547 52.9604ZM59.3125 26.2344C60.4577 26.2319 61.5618 26.6609 62.4048 27.4359C63.2479 28.2109 63.7681 29.2751 63.8617 30.4164C63.9554 31.5578 63.6156 32.6925 62.9102 33.5946C62.2047 34.4967 61.1853 35.0999 60.055 35.2841L61.6884 32.0185C62.0666 31.262 62.1571 30.3939 61.943 29.5757C61.7289 28.7575 61.2248 28.045 60.5246 27.5707C59.8243 27.0964 58.9756 26.8927 58.1364 26.9975C57.2972 27.1023 56.5246 27.5085 55.9625 28.1404L55.0705 29.1453C55.4028 28.2897 55.9853 27.5542 56.7421 27.0349C57.4989 26.5156 58.3947 26.2366 59.3125 26.2344ZM50.1875 14.8281C51.2751 14.8256 52.3276 15.2127 53.1543 15.9193C53.9811 16.6259 54.5273 17.6053 54.6942 18.68C54.8611 19.7547 54.6375 20.8536 54.0639 21.7776C53.4904 22.7016 52.6048 23.3897 51.5677 23.717L51.9292 22.03C52.0983 21.2489 52.0079 20.4339 51.6716 19.7089C51.3353 18.9839 50.7716 18.3885 50.066 18.013C49.3605 17.6376 48.5517 17.5027 47.7625 17.6289C46.9733 17.755 46.2468 18.1353 45.6934 18.712C45.8555 17.6347 46.3976 16.6509 47.2219 15.9386C48.0462 15.2262 49.0981 14.8323 50.1875 14.8281ZM36.078 7.98438C36.8617 7.98143 37.6328 8.18117 38.3166 8.5642C39.0003 8.94724 39.5734 9.50055 39.9802 10.1704C40.387 10.8403 40.6137 11.604 40.6382 12.3873C40.6628 13.1706 40.4844 13.947 40.1203 14.6411L40.0975 14.1848C40.0336 13.1345 39.5749 12.1473 38.8135 11.421C38.0522 10.6947 37.0444 10.2831 35.9923 10.2687C34.9402 10.2542 33.9215 10.6381 33.1405 11.3432C32.3595 12.0483 31.874 13.0226 31.7812 14.0708C31.5347 13.3828 31.4575 12.6456 31.556 11.9215C31.6546 11.1974 31.9261 10.5077 32.3476 9.91072C32.769 9.31372 33.3281 8.82699 33.9774 8.49169C34.6267 8.15639 35.3472 7.98238 36.078 7.98438ZM17.1094 21.6719C17.1094 20.4618 17.5901 19.3013 18.4457 18.4457C19.3013 17.5901 20.4618 17.1094 21.6719 17.1094C22.8819 17.1094 24.0424 17.5901 24.898 18.4457C25.7537 19.3013 26.2344 20.4618 26.2344 21.6719C26.2344 21.7472 26.2207 21.819 26.2161 21.9L25.7998 21.0194C25.4833 20.1995 24.8783 19.5233 24.0985 19.1179C23.3186 18.7126 22.4176 18.6059 21.5647 18.818C21.0926 18.9358 20.6493 19.1481 20.2616 19.442C19.8739 19.736 19.5499 20.1055 19.309 20.5282C19.0682 20.951 18.9156 21.4181 18.8604 21.9015C18.8052 22.3849 18.8486 22.8745 18.988 23.3406L19.8492 25.85C19.0356 25.4955 18.3431 24.9114 17.8565 24.1693C17.3699 23.4272 17.1102 22.5593 17.1094 21.6719ZM14.8475 44.6361C13.7471 44.6416 12.6685 44.3286 11.7419 43.7349C10.8154 43.1411 10.0804 42.292 9.62559 41.2899C9.17081 40.2878 9.01567 39.1755 9.17888 38.0872C9.34209 36.9989 9.81668 35.981 10.5454 35.1564C11.2741 34.3318 12.2259 33.7356 13.2859 33.4398C14.3458 33.144 15.4688 33.1612 16.5192 33.4892C17.5696 33.8173 18.5027 34.4423 19.2059 35.2888C19.9091 36.1353 20.3523 37.1672 20.4822 38.26L19.2058 36.9836C18.7882 36.566 18.2856 36.243 17.7322 36.0366C17.1788 35.8301 16.5875 35.7449 15.9983 35.7869C15.4092 35.8289 14.8359 35.997 14.3174 36.2798C13.7988 36.5626 13.3471 36.9536 12.9929 37.4262C12.4485 38.164 12.1631 39.061 12.1813 39.9777C12.1994 40.8944 12.5201 41.7795 13.0932 42.4951L15.0734 44.6178C14.9969 44.6201 14.9239 44.6361 14.8475 44.6361ZM27.375 61.5938V58.1719C27.3749 58.0266 27.3475 57.8826 27.294 57.7476L25.0128 52.0444C24.9588 51.9137 24.8815 51.7939 24.7846 51.6908L14.8281 41.0214C14.6253 40.7577 14.4977 40.444 14.4589 40.1135C14.4201 39.7831 14.4717 39.4483 14.608 39.1448C14.7443 38.8413 14.9603 38.5804 15.233 38.3898C15.5058 38.1993 15.8251 38.0862 16.157 38.0627C16.4202 38.0418 16.6849 38.0788 16.9323 38.171C17.1798 38.2632 17.4041 38.4084 17.5896 38.5965L20.862 41.8689C20.9876 41.9939 21.1402 42.0883 21.308 42.145L24.7299 43.2856C24.9016 43.3434 25.0845 43.3594 25.2636 43.3324C25.4428 43.3055 25.6129 43.2362 25.7599 43.1304C25.9069 43.0246 26.0267 42.8854 26.1092 42.7241C26.1917 42.5628 26.2346 42.3843 26.2344 42.2031V37.6406C26.2345 37.5149 26.2137 37.39 26.1728 37.2711L21.1654 22.6597C21.1183 22.4898 21.1057 22.3122 21.1283 22.1373C21.1508 21.9625 21.2082 21.7939 21.297 21.6416C21.3857 21.4892 21.5041 21.3562 21.6451 21.2503C21.7861 21.1445 21.9468 21.0679 22.1179 21.0251C22.445 20.9498 22.7884 20.9988 23.0815 21.1626C23.3745 21.3264 23.5961 21.5933 23.7033 21.9114L29.7703 34.7069C29.8624 34.9015 30.0077 35.066 30.1894 35.1814C30.371 35.2969 30.5816 35.3586 30.7969 35.3594H31.9375C32.2308 35.3597 32.5129 35.2471 32.7253 35.0449C32.9377 34.8427 33.064 34.5664 33.0781 34.2735L34.0397 14.3228C34.0693 13.8425 34.2805 13.3915 34.6305 13.0612C34.9806 12.731 35.4432 12.5464 35.9244 12.5448C36.4056 12.5432 36.8694 12.7247 37.2216 13.0526C37.5738 13.3805 37.7881 13.8302 37.8208 14.3103L38.7812 33.1363C38.7958 33.4183 38.9145 33.685 39.1143 33.8845L40.2549 35.0252C40.3912 35.1614 40.5598 35.261 40.7449 35.3144C40.93 35.3679 41.1257 35.3736 41.3136 35.331C41.5016 35.2884 41.6756 35.1989 41.8196 35.0708C41.9636 34.9428 42.0728 34.7803 42.137 34.5986L47.0234 20.7594C47.1493 20.4293 47.3952 20.1591 47.712 20.0028C48.0288 19.8466 48.393 19.8159 48.7314 19.9169C49.0699 20.018 49.3576 20.2432 49.5369 20.5476C49.7162 20.8519 49.7738 21.2128 49.6982 21.5578L46.7907 35.1312C46.7365 35.3842 46.7699 35.648 46.8854 35.8795L48.026 38.1608C48.1095 38.3275 48.2326 38.4713 48.3845 38.5795C48.5364 38.6877 48.7125 38.757 48.8975 38.7812C49.0823 38.8075 49.2708 38.7872 49.4458 38.7223C49.6209 38.6573 49.777 38.5498 49.9001 38.4094L57.6689 29.6562C57.8628 29.4369 58.1299 29.2957 58.4203 29.2591C58.7107 29.2224 59.0046 29.2927 59.2469 29.4569C59.4893 29.6212 59.6635 29.868 59.7371 30.1513C59.8107 30.4347 59.7785 30.7351 59.6467 30.9965L51.4479 47.3964C51.4113 47.4692 51.3826 47.5456 51.3623 47.6245L50.2491 52.073L47.8355 57.1293C47.7557 57.2949 47.7166 57.4771 47.7215 57.6609L47.8652 61.5938H27.375Z" fill="#EACE88"/>
</svg>
