<svg width="18" height="17" viewBox="0 0 18 17" fill="none" xmlns="http://www.w3.org/2000/svg">
<path d="M2.64376 7.75624C2.55939 7.62343 2.39064 7.5703 2.25001 7.64999C2.10939 7.72968 2.05314 7.88905 2.13751 8.02187C2.22189 8.15468 2.30626 8.31405 2.39064 8.44686C2.44689 8.52655 2.53126 8.57968 2.64376 8.57968C2.70001 8.57968 2.72814 8.57968 2.78439 8.55311C2.92501 8.47343 2.95314 8.31405 2.89689 8.18124C2.81251 8.02186 2.72814 7.88905 2.64376 7.75624ZM15.4688 15.4859L14.85 16.0703C14.7094 16.2031 14.5688 16.2562 14.4 16.2031C9.92814 15.1406 6.07501 12.6172 3.51564 9.08436C3.43126 8.95155 3.26251 8.92499 3.12189 9.00468C2.98126 9.08437 2.95314 9.24374 3.03751 9.37655C5.65314 13.0422 9.64689 15.6453 14.2594 16.7344C14.3438 16.7609 14.4281 16.7609 14.5125 16.7609C14.7938 16.7609 15.0469 16.6547 15.2719 16.4422L15.8906 15.8578C16.0031 15.7516 16.0031 15.5922 15.8906 15.4859C15.7781 15.3797 15.5813 15.3797 15.4688 15.4859Z" fill="#EACE88"/>
<path d="M17.4094 12.9359L14.4844 10.1734C14.2875 9.98748 14.0063 9.88123 13.6969 9.88123C13.3875 9.88123 13.1344 9.98748 12.9094 10.1734L10.8563 12.139C10.6875 12.2984 10.4344 12.325 10.2375 12.2187C8.15626 11.0765 6.35626 9.37654 5.11876 7.35779C5.03439 7.19841 5.00626 6.93279 5.17501 6.77341L7.22814 4.80779C7.42501 4.62185 7.53751 4.35623 7.53751 4.06404C7.53751 3.79841 7.42501 3.53279 7.22814 3.32029L4.30314 0.584351C3.88126 0.185913 3.17814 0.185913 2.75626 0.584351L0.562511 2.62966C0.337511 2.89529 0.225011 3.21404 0.309386 3.55935C0.618761 4.7281 1.04064 5.89685 1.57501 6.95935C1.65939 7.11873 1.82814 7.17185 1.96876 7.11873C2.10939 7.0656 2.16564 6.90623 2.10939 6.77341C1.57501 5.71091 1.18126 4.59529 0.871886 3.47966C0.815636 3.26716 0.928136 3.10779 0.984386 3.0281L3.15001 0.982788C3.34689 0.796851 3.71251 0.796851 3.90939 0.982788L6.83439 3.71873C6.91876 3.79841 6.97501 3.93123 6.97501 4.06404C6.97501 4.19685 6.91876 4.32966 6.83439 4.40935L4.78126 6.40154C4.41564 6.74685 4.44376 7.25154 4.61251 7.59685C5.90626 9.72185 7.76251 11.475 9.98439 12.6968C10.4063 12.9094 10.9406 12.8297 11.2781 12.5109L13.3313 10.5453C13.5281 10.3594 13.8938 10.3594 14.0906 10.5453L17.0156 13.3078C17.2125 13.4937 17.2125 13.839 17.0156 14.025L16.4531 14.5562C16.3406 14.6625 16.3406 14.8219 16.4531 14.9281C16.5094 14.9812 16.5938 15.0078 16.65 15.0078C16.7063 15.0078 16.7906 14.9812 16.8469 14.9281L17.4094 14.3969C17.8313 13.9984 17.8313 13.3344 17.4094 12.9359Z" fill="#EACE88"/>
<path d="M3.375 1.96563L4.30313 2.84219C4.35938 2.89531 4.44375 2.92188 4.5 2.92188C4.55625 2.92188 4.64063 2.89531 4.69688 2.84219C4.80938 2.73594 4.80938 2.57656 4.69688 2.47031L3.74063 1.56719C3.54375 1.38125 3.17812 1.38125 3.00937 1.56719L2.05313 2.47031C1.94063 2.57656 1.94063 2.73594 2.05313 2.84219C2.16563 2.94844 2.33437 2.94844 2.44687 2.84219L3.375 1.96563ZM5.625 3.98438C5.70937 3.98438 5.76563 3.95781 5.82188 3.90469C5.93438 3.79844 5.93438 3.63906 5.82188 3.53281L5.37188 3.10781C5.25938 3.00156 5.09063 3.00156 4.97813 3.10781C4.86563 3.21406 4.86563 3.37344 4.97813 3.47969L5.42812 3.90469C5.48437 3.95781 5.54063 3.98438 5.625 3.98438ZM13.4156 15.4328C13.4438 15.4328 13.4719 15.4328 13.5 15.4328C13.6125 15.4328 13.725 15.3531 13.7812 15.2469C13.8375 15.1141 13.7531 14.9547 13.5844 14.9016C12.6281 14.6094 11.8688 14.3703 11.2219 14.0781C11.0813 14.025 10.9125 14.0781 10.8562 14.2109C10.8 14.3438 10.8562 14.5031 10.9969 14.5562C11.6719 14.875 12.4313 15.1406 13.4156 15.4328Z" fill="#EACE88"/>
</svg>
