<svg width="21" height="17" viewBox="0 0 21 17" fill="none" xmlns="http://www.w3.org/2000/svg">
<path d="M1.54002 7.6032C7.0653 5.27475 10.7496 3.73965 12.5932 2.9979C17.8567 0.880279 18.9504 0.512405 19.6633 0.50018C19.8201 0.49763 20.1706 0.535204 20.3978 0.713404C20.5895 0.863929 20.6422 1.06725 20.6675 1.2099C20.6927 1.35263 20.7242 1.67768 20.6991 1.93163C20.4139 4.83053 19.1798 11.8655 18.5518 15.1123C18.2861 16.4861 17.763 16.9468 17.2566 16.9919C16.1559 17.0898 15.3201 16.2883 14.2541 15.6123C12.5859 14.5547 11.6436 13.8962 10.0243 12.8641C8.15305 11.6713 9.36612 11.0157 10.4326 9.94426C10.7116 9.66391 15.5612 5.39715 15.655 5.01015C15.6668 4.9617 15.6777 4.78126 15.5669 4.68601C15.456 4.59075 15.2925 4.6233 15.1744 4.64918C15.0071 4.68593 12.3422 6.3897 7.17978 9.7605C6.42334 10.2629 5.73823 10.5077 5.12437 10.4948C4.44766 10.4807 3.14592 10.1248 2.17819 9.82051C0.99124 9.44723 0.0478427 9.24998 0.129986 8.61616C0.172776 8.28601 0.642772 7.94835 1.54002 7.6032Z" fill="white"/>
</svg>
