<svg width="26" height="26" viewBox="0 0 26 26" fill="none" xmlns="http://www.w3.org/2000/svg">
<path d="M22.3049 2.64602C21.6764 2.06826 19.132 0.218234 13.4604 0.192893C13.4604 0.192893 6.77498 -0.212591 3.51592 2.77783C1.70138 4.59233 1.06275 7.24323 0.996856 10.5378C0.930966 13.8272 0.844801 19.9956 6.79018 21.6682H6.79524L6.79018 24.2177C6.79018 24.2177 6.75471 25.2517 7.43388 25.4595C8.255 25.7129 8.74156 24.9272 9.52721 24.0808C9.95803 23.6145 10.551 22.9353 11.0021 22.4133C15.0671 22.7529 18.1944 21.9723 18.5491 21.8557C19.3702 21.5871 24.0181 20.9941 24.7733 14.8257C25.5539 8.47989 24.3931 4.4606 22.3049 2.64602ZM22.9942 14.3797C22.3556 19.5293 18.5897 19.8537 17.8953 20.0767C17.6013 20.173 14.8542 20.8573 11.3974 20.6291C11.3974 20.6291 8.82262 23.7362 8.02185 24.5421C7.89511 24.6688 7.74809 24.7194 7.65183 24.6941C7.51495 24.6586 7.47441 24.4964 7.47948 24.2582C7.47948 23.9136 7.49975 20.0159 7.49975 20.0159C7.49468 20.0159 7.49468 20.0159 7.49975 20.0159C2.46673 18.622 2.76067 13.371 2.81649 10.6239C2.87222 7.8768 3.38918 5.62126 4.92493 4.10578C7.67716 1.61211 13.359 1.98205 13.359 1.98205C18.1538 2.00232 20.4498 3.44687 20.9821 3.92836C22.751 5.44892 23.6532 9.07293 22.9942 14.3797Z" fill="white"/>
<path d="M15.797 10.7202C15.6297 10.7202 15.4877 10.5884 15.4776 10.4161C15.4219 9.32636 14.91 8.7942 13.8658 8.73847C13.6884 8.72834 13.5516 8.57626 13.5617 8.39885C13.5718 8.22143 13.7239 8.08463 13.9013 8.09477C15.2799 8.17077 16.0504 8.96148 16.1213 10.3806C16.1314 10.558 15.9946 10.7101 15.8172 10.7152C15.8071 10.7202 15.802 10.7202 15.797 10.7202Z" fill="white"/>
<path d="M17.4391 11.2678H17.434C17.2566 11.2627 17.1147 11.1158 17.1198 10.9383C17.1451 9.84355 16.8309 8.95657 16.1618 8.22665C15.4978 7.49681 14.5805 7.10145 13.3691 7.01532C13.1916 7.00012 13.0599 6.84804 13.0751 6.67063C13.0903 6.49322 13.2424 6.36148 13.4198 6.37668C14.7883 6.47802 15.8679 6.95444 16.6382 7.79582C17.4138 8.64227 17.7888 9.7016 17.7635 10.9535C17.7584 11.131 17.6114 11.2678 17.4391 11.2678Z" fill="white"/>
<path d="M19.1219 11.9267C18.9445 11.9267 18.8025 11.7847 18.8025 11.6073C18.7873 9.6458 18.2247 8.15058 17.0792 7.03045C15.949 5.92552 14.5145 5.36288 12.8268 5.34768C12.6494 5.34768 12.5074 5.20075 12.5074 5.02334C12.5074 4.84592 12.6544 4.70398 12.8268 4.70398C14.6869 4.71918 16.2682 5.34262 17.5202 6.56922C18.7772 7.79583 19.4209 9.48865 19.4412 11.5972C19.4462 11.7797 19.3043 11.9267 19.1219 11.9267C19.1269 11.9267 19.1269 11.9267 19.1219 11.9267ZM13.9418 14.6889C13.9418 14.6889 14.3929 14.7295 14.6362 14.4304L15.1076 13.8374C15.3357 13.5434 15.8882 13.3559 16.4254 13.655C16.7245 13.8222 17.2668 14.1567 17.6013 14.4051C17.9611 14.6686 18.6911 15.2768 18.6961 15.2819C19.0458 15.5759 19.1269 16.0068 18.8887 16.468C18.8887 16.468 18.8887 16.4731 18.8887 16.4781C18.6454 16.9089 18.316 17.3144 17.9054 17.6894C17.9003 17.6894 17.9003 17.6945 17.8953 17.6945C17.5556 17.9784 17.2212 18.1405 16.8967 18.1761C16.8562 18.1862 16.8106 18.1862 16.7498 18.1862C16.6079 18.1862 16.4659 18.166 16.3241 18.1203L16.3139 18.1051C15.807 17.9632 14.9656 17.6084 13.5668 16.8329C12.6544 16.3311 11.8992 15.8192 11.2555 15.3072C10.9159 15.0386 10.5712 14.7396 10.2165 14.3848C10.2063 14.3747 10.1911 14.3595 10.181 14.3493C10.1708 14.3392 10.1556 14.324 10.1455 14.3139C10.1354 14.3037 10.1202 14.2885 10.11 14.2784C10.0999 14.2683 10.0847 14.253 10.0746 14.2428C9.7248 13.8881 9.42072 13.5434 9.15211 13.2039C8.64014 12.5652 8.12824 11.8049 7.62649 10.8926C6.85097 9.48858 6.49614 8.64727 6.35428 8.14543L6.33908 8.1353C6.2934 7.99343 6.27313 7.85149 6.27313 7.70954C6.27313 7.64874 6.27313 7.60314 6.28327 7.56261C6.32388 7.23312 6.48601 6.90362 6.76484 6.56408C6.76484 6.55901 6.7699 6.55901 6.7699 6.55395C7.14492 6.13832 7.55041 5.8139 7.98123 5.57062C7.98123 5.57062 7.9863 5.57062 7.99137 5.57062C8.44752 5.3324 8.87835 5.41355 9.17744 5.76323C9.17744 5.76323 9.79074 6.49821 10.0543 6.85803C10.3026 7.19765 10.6371 7.73487 10.8044 8.03397C11.1035 8.57119 10.9159 9.1237 10.6219 9.35178L10.029 9.82313C9.72987 10.0664 9.7704 10.5175 9.7704 10.5175C9.7704 10.5175 10.6473 13.8526 13.9418 14.6889Z" fill="white"/>
</svg>
