<svg width="25" height="26" viewBox="0 0 25 26" fill="none" xmlns="http://www.w3.org/2000/svg">
<path d="M21.4069 4.56006C19.1555 2.24245 16.0434 0.984375 12.8649 0.984375C6.11089 0.984375 0.681167 6.48034 0.747405 13.1681C0.747405 15.287 1.34337 17.3398 2.33658 19.1938L0.614929 25.4844L7.03796 23.829C8.82576 24.8222 10.8123 25.2857 12.7987 25.2857C19.4866 25.2857 24.9163 19.7898 24.9163 13.1019C24.9163 9.85731 23.6582 6.81144 21.4069 4.56006ZM12.8649 23.233C11.0771 23.233 9.28924 22.7695 7.76631 21.8424L7.36897 21.6438L3.52851 22.637L4.52172 18.8627L4.25685 18.4655C1.34337 13.7641 2.73383 7.53979 7.50144 4.6263C12.269 1.71275 18.4271 3.10328 21.3406 7.87089C24.2541 12.6384 22.8636 18.7966 18.096 21.7101C16.5731 22.7033 14.719 23.233 12.8649 23.233ZM18.692 15.883L17.9636 15.5519C17.9636 15.5519 16.9041 15.0884 16.242 14.7573C16.1758 14.7573 16.1095 14.6912 16.0434 14.6912C15.8447 14.6912 15.7123 14.7573 15.5798 14.8236C15.5798 14.8236 15.5136 14.8898 14.5866 15.9492C14.5203 16.0817 14.388 16.1479 14.2555 16.1479H14.1892C14.1231 16.1479 13.9906 16.0817 13.9244 16.0155L13.5934 15.883C12.8649 15.5519 12.2028 15.1546 11.6731 14.6249C11.5406 14.4924 11.342 14.3601 11.2095 14.2276C10.746 13.7641 10.2825 13.2344 9.95144 12.6384L9.88521 12.506C9.81897 12.4398 9.81897 12.3736 9.75282 12.2412C9.75282 12.1087 9.75282 11.9763 9.81897 11.9101C9.81897 11.9101 10.0838 11.579 10.2825 11.3803C10.4149 11.2479 10.4812 11.0492 10.6136 10.9169C10.746 10.7181 10.8123 10.4533 10.746 10.2547C10.6798 9.92355 9.88521 8.13575 9.68658 7.73841C9.55411 7.53979 9.42172 7.47355 9.22309 7.40731H9.02438C8.89199 7.40731 8.69337 7.40731 8.49466 7.40731C8.36227 7.40731 8.22979 7.47355 8.09741 7.47355L8.03117 7.53979C7.89869 7.60602 7.7663 7.73841 7.63383 7.80465C7.50144 7.93704 7.4352 8.06951 7.30282 8.2019C6.83924 8.79786 6.57438 9.5263 6.57438 10.2547C6.57438 10.7844 6.70686 11.3141 6.90548 11.7776L6.97172 11.9763C7.56768 13.2344 8.36227 14.3601 9.42172 15.3533L9.68658 15.6181C9.88521 15.8169 10.0838 15.9492 10.2163 16.1479C11.6069 17.3398 13.196 18.2006 14.9838 18.6641C15.1825 18.7303 15.4474 18.7303 15.646 18.7966C15.8447 18.7966 16.1095 18.7966 16.3082 18.7966C16.6392 18.7966 17.0366 18.6641 17.3014 18.5317C17.5001 18.3992 17.6325 18.3992 17.7649 18.2668L17.8974 18.1344C18.0298 18.0019 18.1623 17.9357 18.2947 17.8033C18.4271 17.6709 18.5595 17.5384 18.6258 17.406C18.7582 17.1412 18.8244 16.8101 18.8906 16.479C18.8906 16.3466 18.8906 16.1479 18.8906 16.0155C18.8906 16.0155 18.8244 15.9492 18.692 15.883Z" fill="white"/>
</svg>
